<?xml version="1.0" encoding="utf-8"?>
<svg version="1.1" xmlns="http://www.w3.org/2000/svg" x="0px" y="0px" width="200px" height="50px" viewBox="0 0 200 50" enable-background="new 0 0 200 50" xml:space="preserve">
<path d="M95.597,39.567h4.979l-0.17,0.832h-2.049l-1.518,7.492h-0.877l1.519-7.492H95.43L95.597,39.567z"/>
	<path d="M100.645,47.892h-0.834l1.686-8.324h0.836l-0.574,2.831h0.022c0.487-0.533,0.983-0.843,1.618-0.843 c0.877,0,1.349,0.487,1.128,1.573l-0.963,4.763h-0.835l0.914-4.517c0.131-0.645,0.017-1.078-0.658-1.078 c-0.308,0-0.628,0.122-0.896,0.345c-0.403,0.322-0.516,0.677-0.607,1.121L100.645,47.892z"/>
	<path d="M108.388,44.163c0.115-0.723,0.388-1.866-0.585-1.866c-0.972,0-1.222,1.134-1.401,1.866H108.388z M108.872,45.84 c-0.189,1.21-0.986,2.219-2.223,2.219c-1.111,0-1.747-0.775-1.243-3.264c0.262-1.299,0.984-3.239,2.536-3.239 c1.904,0,1.417,1.885,1.168,3.328h-2.855c-0.146,0.834-0.607,2.432,0.565,2.432c0.803,0,1.183-0.775,1.271-1.476H108.872 L108.872,45.84z"/>
	<path d="M117.131,41.754c0.239-0.865-0.072-1.52-0.95-1.52c-1.279,0-1.587,0.843-1.718,1.486c-0.117,0.576,0.057,0.932,0.522,1.132 l1.156,0.499c1.383,0.589,1.545,1.145,1.321,2.242c-0.317,1.575-1.445,2.498-2.967,2.498c-0.784,0-1.666-0.233-1.899-1.321 c-0.086-0.41,0.059-1.077,0.139-1.521h0.875c-0.291,1.232-0.225,2.009,1.097,2.009c0.888,0,1.608-0.477,1.805-1.453 c0.258-1.266-0.228-1.276-0.967-1.598c-0.396-0.178-1.047-0.411-1.422-0.645c-0.671-0.398-0.726-1.065-0.56-1.887 c0.278-1.375,1.381-2.273,2.669-2.273c1.449,0,2.179,0.787,1.775,2.352H117.131L117.131,41.754z"/>
	<path d="M118.84,41.721h0.867l0.237,5.35h0.021l2.446-5.35h0.867l-2.937,5.893c-0.182,0.367-0.627,1.266-0.858,1.577 c-0.423,0.576-0.895,0.81-1.508,0.81c-0.199,0-0.395-0.031-0.583-0.1l0.156-0.778c0.174,0.089,0.396,0.135,0.597,0.135 c0.782,0,0.927-0.609,1.284-1.221L118.84,41.721z"/>
	<path d="M123.869,47.892h-0.836l1.251-6.171h0.804l-0.16,0.787h0.021c0.38-0.521,0.975-0.954,1.588-0.954 c0.623,0,1.053,0.388,1.197,0.979c0.542-0.634,1.033-0.979,1.774-0.979c0.4,0,0.741,0.145,0.992,0.434 c0.306,0.367,0.145,1.053,0.066,1.443l-0.902,4.461h-0.837l0.914-4.517c0.142-0.688,0.039-1.078-0.68-1.078 c-0.289,0.013-0.599,0.134-0.854,0.345c-0.402,0.322-0.518,0.677-0.606,1.121l-0.837,4.129h-0.836l0.915-4.517 c0.13-0.645,0.02-1.078-0.659-1.078c-0.308,0-0.627,0.122-0.894,0.345c-0.404,0.322-0.498,0.677-0.586,1.121L123.869,47.892z"/>
	<path d="M132.623,44.962c0.182-0.899,0.464-2.665,1.7-2.665c1.068,0,0.8,1.588,0.637,2.399c-0.336,1.664-0.773,2.619-1.639,2.619 C132.136,47.313,132.441,45.86,132.623,44.962z M132.156,47.159h0.021c0.204,0.723,0.654,0.899,1.163,0.899 c1.585,0,2.189-1.896,2.544-3.651c0.257-1.264,0.22-2.852-1.271-2.852c-0.518,0-0.946,0.244-1.389,0.799h-0.021l0.563-2.787h-0.834 l-1.685,8.324h0.76L132.156,47.159z"/>
	<path d="M140.231,44.873c-0.296,1.454-0.737,2.442-1.732,2.442c-0.973,0-1.036-0.988-0.741-2.442c0.378-1.866,0.9-2.576,1.757-2.576 C140.393,42.297,140.609,43.009,140.231,44.873z M141.154,44.597c0.378-1.866-0.039-3.043-1.489-3.043 c-1.447,0-2.341,1.177-2.718,3.043c-0.54,2.663,0.135,3.46,1.401,3.46C139.639,48.057,140.613,47.271,141.154,44.597z"/>
	<path d="M141.786,47.892l1.687-8.324h0.834l-1.685,8.324H141.786z"/>
	<path d="M150.504,44.873c-0.293,1.454-0.736,2.442-1.729,2.442c-0.974,0-1.036-0.988-0.743-2.442 c0.377-1.866,0.902-2.576,1.759-2.576C150.667,42.297,150.882,43.009,150.504,44.873z M151.427,44.597 c0.377-1.866-0.039-3.043-1.486-3.043c-1.449,0-2.343,1.177-2.719,3.043c-0.541,2.663,0.134,3.46,1.402,3.46 C149.914,48.057,150.887,47.271,151.427,44.597z"/>
	<path d="M153.383,42.464h-0.857l0.151-0.743h0.844l0.107-0.522c0.072-0.365,0.178-0.875,0.451-1.187 c0.359-0.411,0.877-0.521,1.646-0.444l-0.151,0.743c-0.665-0.065-0.92,0-1.074,0.756l-0.132,0.654h0.919l-0.148,0.743h-0.921 l-1.099,5.428h-0.836L153.383,42.464z"/>
	<path d="M160.186,40.399h0.908c1.071-0.022,1.848,0.167,1.575,1.512c-0.279,1.431-1.055,1.608-2.263,1.618h-0.856L160.186,40.399z M158.668,47.892l0.714-3.53h0.528c0.604,0,1.501,0,2.1-0.243c0.939-0.411,1.386-1.31,1.573-2.23 c0.135-0.666,0.096-1.311-0.287-1.775c-0.369-0.466-1.125-0.545-1.738-0.545h-2.084l-1.685,8.324H158.668L158.668,47.892z"/>
	<path d="M165.462,42.73h0.021c0.515-0.812,1.08-1.154,1.944-1.078l-0.176,0.865c-1.037-0.198-1.817,0.513-2.045,1.633l-0.756,3.739 h-0.836l1.249-6.171h0.805L165.462,42.73z"/>
	<path d="M170.768,44.873c-0.293,1.454-0.736,2.442-1.729,2.442c-0.973,0-1.036-0.988-0.743-2.442 c0.377-1.866,0.902-2.576,1.759-2.576C170.931,42.297,171.146,43.009,170.768,44.873z M171.69,44.597 c0.377-1.866-0.039-3.043-1.486-3.043c-1.449,0-2.343,1.177-2.719,3.043c-0.541,2.663,0.134,3.46,1.402,3.46 C170.178,48.057,171.15,47.271,171.69,44.597z"/>
	<path d="M174.546,41.721h0.984l-0.152,0.743h-0.973l-0.85,4.206c-0.044,0.21-0.172,0.477,0.293,0.477h0.562l-0.152,0.743h-0.921 c-0.498,0.013-0.852-0.076-0.66-1.01l0.895-4.418h-0.814l0.149-0.743h0.814l0.338-1.677h0.824L174.546,41.721z"/>
	<path d="M176.578,44.163c0.179-0.732,0.431-1.866,1.403-1.866s0.698,1.144,0.584,1.866H176.578z M178.269,45.84 c-0.089,0.697-0.469,1.474-1.271,1.474c-1.173,0-0.713-1.598-0.563-2.43h2.853c0.25-1.443,0.737-3.328-1.164-3.328 c-1.555,0-2.275,1.94-2.539,3.239c-0.502,2.488,0.132,3.262,1.242,3.262c1.237,0,2.034-1.009,2.226-2.219h-0.782V45.84z"/>
	<path d="M181.097,45.071c-0.163,0.812-0.4,2.242,0.667,2.242c0.911,0,1.16-0.819,1.356-1.575h0.793 c-0.272,1.188-0.925,2.318-2.236,2.318c-1.796,0-1.731-1.575-1.407-3.173c0.305-1.509,0.906-3.328,2.705-3.328 c1.182,0,1.559,0.964,1.317,2.105h-0.782c0.126-0.675,0.097-1.364-0.696-1.364C181.597,42.297,181.274,44.196,181.097,45.071z"/>
	<path d="M186.871,41.721h0.983l-0.151,0.743h-0.972l-0.851,4.206c-0.044,0.21-0.172,0.477,0.293,0.477h0.561l-0.15,0.743h-0.921 c-0.501,0.013-0.852-0.076-0.663-1.01l0.896-4.418h-0.814l0.15-0.743h0.813l0.341-1.677h0.823L186.871,41.721z"/>
	<path d="M189.884,40.679l0.225-1.111h-0.836l-0.225,1.111H189.884z M188.424,47.892l1.249-6.171h-0.836l-1.249,6.171H188.424z"/>
	<path d="M193.664,44.873c-0.295,1.454-0.737,2.442-1.731,2.442c-0.973,0-1.037-0.988-0.743-2.442 c0.378-1.866,0.903-2.576,1.757-2.576C193.825,42.297,194.042,43.009,193.664,44.873z M194.587,44.597 c0.378-1.866-0.038-3.043-1.487-3.043c-1.447,0-2.342,1.177-2.72,3.043c-0.538,2.663,0.135,3.46,1.404,3.46 C193.071,48.057,194.046,47.271,194.587,44.597z"/>
	<path d="M197.157,42.398h0.021c0.51-0.533,1.006-0.845,1.641-0.845c0.876,0,1.349,0.489,1.128,1.575l-0.964,4.763h-0.834 l0.914-4.517c0.13-0.645,0.017-1.078-0.66-1.078c-0.306,0-0.626,0.122-0.895,0.345c-0.402,0.322-0.516,0.677-0.606,1.121 l-0.836,4.129h-0.834l1.249-6.171h0.814L197.157,42.398z"/>
	<path d="M35.965,44.174c0-0.985,0.799-1.782,1.785-1.782l0,0c0.985,0,1.782,0.797,1.782,1.782l0,0 c-0.002,0.986-0.797,1.781-1.782,1.783l0,0C36.764,45.955,35.965,45.16,35.965,44.174L35.965,44.174z M36.228,44.174 c0.002,0.842,0.683,1.52,1.52,1.52l0,0c0.84,0,1.519-0.678,1.519-1.52l0,0c-0.002-0.839-0.681-1.516-1.519-1.52l0,0 C36.911,42.658,36.23,43.335,36.228,44.174L36.228,44.174z"/>
	<path fill="#CF0A2C" d="M22.905,0C10.255,0,0,10.256,0,22.906c0,12.652,10.255,22.906,22.905,22.906 c12.649,0,22.905-10.254,22.905-22.906C45.811,10.257,35.555,0,22.905,0z M22.905,41.105c-10.051,0-18.198-8.148-18.198-18.199 c0-10.05,8.147-18.197,18.198-18.197c10.05,0,18.197,8.147,18.197,18.197C41.102,32.957,32.955,41.105,22.905,41.105z"/>
	<path fill="#CF0A2C" d="M34.994,18.449c-0.016-5.177-3.484-8.322-8.586-8.307l-12.043,0.037l0.019,26.217h5.551l-0.012-9.382 l6.315-0.021C34.91,25.977,35.001,20.832,34.994,18.449z M25.012,22.446l-5.102,0.015l-0.023-7.747l4.369-0.011 c3.414-0.012,5.14,1.068,5.149,3.638C29.406,19.515,29.124,22.432,25.012,22.446z"/>
	<path d="M37.123,43.197h0.714c0.168,0,0.292,0.037,0.369,0.109c0.079,0.072,0.118,0.163,0.118,0.276c0,0.076-0.02,0.148-0.062,0.213 c-0.04,0.066-0.099,0.113-0.176,0.143c-0.077,0.03-0.184,0.045-0.32,0.045h-0.643V43.197L37.123,43.197z M37.123,45.312v-1.058 h0.347c0.077,0,0.132,0.004,0.167,0.011c0.046,0.015,0.091,0.033,0.135,0.065c0.044,0.029,0.094,0.083,0.151,0.157 c0.057,0.076,0.129,0.186,0.216,0.33l0.299,0.494h0.374l-0.392-0.646c-0.077-0.128-0.16-0.233-0.248-0.316 c-0.041-0.039-0.101-0.078-0.179-0.119c0.217-0.029,0.377-0.104,0.48-0.219c0.104-0.116,0.155-0.259,0.155-0.426 c0-0.13-0.031-0.25-0.093-0.359c-0.063-0.107-0.147-0.184-0.251-0.225c-0.106-0.043-0.259-0.064-0.46-0.064h-1.003v2.375H37.123 L37.123,45.312z"/>
	<path d="M88.075,10.14c-8.466-0.197-15.119,6.109-15.119,13.645c0,8.129,6.733,13.761,14.715,13.761 c8.021,0,14.835-5.869,14.835-13.958C102.507,16.446,96.54,10.1,88.075,10.14L88.075,10.14z M87.792,12.996 c6.369,0,9.151,5.592,9.151,11.383c0,5.91-2.942,10.313-9.071,10.313c-6.328,0-9.673-5.711-9.673-11.264 C78.198,17.439,81.544,12.996,87.792,12.996L87.792,12.996z"/>
	<path d="M50.054,10.236v0.12c2.407,0.803,2.118,3.734,2.118,5.541V31.03c0,1.805,0.289,4.775-2.167,5.498v0.12h9.577v-0.12 c-2.551-1.205-2.502-2.81-2.502-5.058V13.365c1.107-0.159,2.213-0.241,3.369-0.241c3.85,0,6.834,1.406,6.834,4.938 c0,3.854-4.475,5.981-8.614,6.183c1.106,0.439,2.31,1.036,3.512,1.036c5.439,0,10.917-3.405,10.917-8.022 c0-4.497-5.094-7.025-11.351-7.025H50.054V10.236z"/>
	<path d="M112.954,13.64h3.484c1.398,0,2.724-0.138,3.275,1.236c0,0-0.295-4.386-1.016-4.386c0,0-17.15,0.245-17.658,0.048h-0.127 l-0.836,4.35c0,0,2.133-1.252,4.516-1.248h3.401v17.51c0,1.77,0.576,4.637-1.538,5.382v0.118h8.376v-0.118 c-2.242-1.216-1.876-2.75-1.876-4.987V13.64H112.954z"/>
	<path d="M146.026,24.047h3.266c1.369,0,3.221-0.041,3.927,1.098h0.133v-4.163h-0.133c-0.528,0.236-1.234,0.236-1.94,0.236h-5.252 v-7.303c1.412-0.234,2.956-0.275,4.5-0.275c2.032,0,3.841,0.157,5.21,1.57h0.133v-4.594h-0.133 c-0.574,0.273-1.324,0.197-2.075,0.197H139.54v0.117c2.251,0.745,1.986,3.612,1.986,5.418v14.803c0,1.768,0.265,4.672-1.986,5.38 v0.118h21.307l1.986-5.145l-2.503,0.441c-2.213,2.3-2.664,1.866-8.698,1.875l-5.605-0.149V24.047L146.026,24.047z"/>
	<path d="M157.897,10.816v0.117c2.395,0.745,2.066,3.611,2.066,5.417v14.802c0,1.768,0.328,4.672-2.066,5.38v0.118h8.969v-0.118 c-2.396-0.708-2.112-3.573-2.112-5.38V13.563c1.077-0.157,2.112-0.275,3.191-0.315c3.146-0.118,6.058,1.532,6.058,4.359 c0,3.69-4.366,5.142-8.125,5.614l4.321,5.536l4.41,6.008c1.407,1.453,0.938,1.885,4.183,1.885h3.997 c-2.676-1.414-4.023-3.778-5.994-5.82l-4.823-6.461c3.851-0.746,6.818-3.777,6.818-7.233c0-3.573-3.427-6.32-9.717-6.32H157.897 L157.897,10.816z"/>
	<path d="M131.669,13.64h3.485c1.396,0,3.089,0.195,3.64,1.57h0.126c0,0,0-4.722-0.721-4.722c0,0-17.032,0.245-17.54,0.047h-0.083 c-0.637,0.621-0.875,4.351-0.875,4.351s1.222-1.252,3.606-1.248h3.4V31.15c0,1.768,0.576,4.635-1.538,5.38v0.118h8.376V36.53 c-2.242-1.216-1.877-2.75-1.877-4.985V13.64L131.669,13.64z"/>
</svg>
